<?xml version="1.0" encoding="utf-8"?>
<!-- Generator: Adobe Illustrator 21.1.0, SVG Export Plug-In . SVG Version: 6.00 Build 0)  -->
<svg version="1.1" id="Layer_1" xmlns="http://www.w3.org/2000/svg" xmlns:xlink="http://www.w3.org/1999/xlink" x="0px" y="0px"
	 viewBox="0 0 120 120" style="enable-background:new 0 0 120 120;" xml:space="preserve">
<style type="text/css">
	.st0{clip-path:url(#SVGID_2_);}
	.st1{fill:#C1272D;}
	.st2{fill:#FFFFFF;}
</style>
<g>
	<defs>
		<path id="SVGID_1_" d="M100,120H20c-11,0-20-9-20-20V20C0,9,9,0,20,0h80c11,0,20,9,20,20v80C120,111,111,120,100,120z"/>
	</defs>
	<clipPath id="SVGID_2_">
		<use xlink:href="#SVGID_1_"  style="overflow:visible;"/>
	</clipPath>
	<g class="st0">
		<path class="st1" d="M119.9,120.1c-40,0-80,0-120,0c0-40,0-80,0-120c40,0,80,0,120,0C119.9,40,119.9,80,119.9,120.1z M93.2,16.8
			c-0.5-1.1-0.4-2.2-1.7-2.3c-4.8-0.3-9.5-0.7-14.3-0.9c-2.1-0.1-2.5,0.5-3,2.5c-0.1,0.3-0.3,0.8-0.6,0.8c-0.9,0.2-1.9,0.4-2.9,0.3
			c-0.5,0-1-0.6-1.5-1c-0.4-0.3-0.7-0.7-1.1-0.8c-0.8-0.2-1.7-0.2-2.7-0.3c0.2-0.6,0.4-1,0.5-1.5c-0.3-0.1-0.5-0.1-0.7-0.1
			c-3.6-0.1-7.2-0.2-10.8-0.2c-1.5,0-3,0.2-4.4,1.2c-1.6,1.2-3.6,2.3-5.9,1.9c-1.2-0.2-2.3-0.1-3.5-0.2c-1.1,0-2.2,0.3-3-0.7
			c-0.2-0.2-0.6-0.2-0.9-0.2c-0.9,0-1.8,0-2.7,0c-6,0-12.1-0.1-18.1-0.1c-0.7,0-1.1,0.2-1.2,0.8c-0.1,1.2-0.5,2.5-0.2,3.7
			c1.1,4.8,0.6,9.6-0.4,14.3c-0.7,3.4-0.4,6.7,0.5,9.9c0.7,2.8,1.4,5.5,0.7,8.4c-0.4,1.6,0,3.1,1.2,4.5c1.3,1.5,0.4,4.3-1.4,5
			c-0.3,0.1-0.7,0.5-0.7,0.8c0.1,2.8,0.2,5.7,0.5,8.5c0.1,0.7,0.8,1.4,1.2,2.2c0.3,0.6,0.9,1.2,0.9,1.9c0,2.1-0.2,4.3-0.5,6.4
			c-0.1,0.8-0.6,1.5-0.9,2.3c-0.4,0.9-0.9,1.8-1,2.8c-0.2,4.8,0.8,9.5,0,14.3c-0.1,0.8,0.2,1.1,0.9,1.4c2.2,0.8,4.4,0.8,6.7,0.7
			c2.9-0.2,5.8-0.3,8.8-0.3c2.7,0,5.3,0.5,8,0.3c2.9-0.2,5.7,0.1,8.6,0.3c0.3,0,0.6,0.2,0.9,0.2c0.5,0,1,0,1.3-0.2
			c0.6-0.3,0.9-0.3,1.3,0.4c0.4,0.8,1,1.6,1.6,2.3c0.9,1,1.3,1.1,2.1-0.1c0.9-1.2,1.9-1.3,3.2-0.9c0.9,0.2,1.9,0.2,2.8,0.4
			c0.2,0,0.5,0.1,0.7,0.3c0.7,1,1.5,1,2.4,0.4c2-1.3,4.2-1.6,6.5-1.6c3.4,0,6.7,0,10.1-0.2c1.1-0.1,2.2-0.9,3.3-0.9
			c1.1,0,2.3,0.7,3.5,0.8c2.1,0.2,4.3,0.3,6.4,0.3c1.2,0,2.5-0.3,3.9-0.4c-0.4-0.5-0.5-0.7-0.6-0.8c-0.2-0.2-0.4-0.4-0.6-0.5
			c0.3-0.1,0.5-0.4,0.8-0.4c1.5,0.1,3.1,0,4.6,0.3c1.4,0.3,2.8,0.8,4.3,1.3c0-0.5,0.1-1,0.1-1.4c0-5.9-0.1-11.8-0.1-17.7
			c0-5.8,0-11.7,0.1-17.5c0-0.8-0.3-1.1-1.1-1.1c-0.6,0.1-1.2,0-1.8,0c0.1-0.3,0.1-0.3,0.1-0.4c0-0.1,0.1-0.2,0.1-0.2
			c1.5-0.4,1.3-1.7,1.4-2.8c0-0.7,0.1-1.4,0.1-2.1c0.2-3.4,0.2-6.7-2.3-9.5c-0.7-0.7-0.5-1.4,0.2-2.2c0.5-0.6,1.3-1.1,0.8-2.1
			c-0.4-0.8-0.1-1.3,0.7-1.6c1.1-0.4,1.6-1.1,1.6-2.3c0-3.3,0.2-6.6,0.1-9.8c0-3-0.3-6.1-0.4-9.1c0-1.2,0.1-2.4,0.1-3.6
			c0-1,0.1-2.1-0.1-3.1c-0.1-0.4-1-0.6-1.5-0.9c-0.1-0.1-0.2-0.2-0.4-0.3c-0.7-0.3-1.4-0.8-2.2-0.9c-0.9-0.2-2-0.1-2.9-0.2
			c-1-0.1-2-0.4-2.9-0.4c-0.5,0-1,0.3-1.5,0.6C93.9,15.8,93.7,16.3,93.2,16.8z"/>
		<path class="st2" d="M93.2,16.8c0.5-0.5,0.8-1,1.2-1.3c0.4-0.3,1-0.6,1.5-0.6c1,0,2,0.3,2.9,0.4c1,0.1,2,0,2.9,0.2
			c0.8,0.1,1.5,0.6,2.2,0.9c0.1,0.1,0.2,0.2,0.4,0.3c0.5,0.3,1.4,0.5,1.5,0.9c0.2,1,0.1,2.1,0.1,3.1c0,1.2-0.1,2.4-0.1,3.6
			c0.1,3,0.4,6.1,0.4,9.1c0,3.3-0.1,6.6-0.1,9.8c0,1.2-0.5,1.9-1.6,2.3c-0.8,0.3-1.2,0.8-0.7,1.6c0.5,1-0.3,1.5-0.8,2.1
			c-0.7,0.7-0.8,1.4-0.2,2.2c2.5,2.8,2.5,6.1,2.3,9.5c0,0.7-0.1,1.4-0.1,2.1c-0.1,1.1,0.1,2.4-1.4,2.8c-0.1,0-0.1,0.1-0.1,0.2
			c0,0.1,0,0.1-0.1,0.4c0.6,0,1.2,0,1.8,0c0.8-0.1,1.1,0.2,1.1,1.1c0,5.8-0.1,11.7-0.1,17.5c0,5.9,0,11.8,0.1,17.7
			c0,0.5,0,0.9-0.1,1.4c-1.5-0.5-2.9-1.1-4.3-1.3c-1.5-0.3-3.1-0.2-4.6-0.3c-0.3,0-0.5,0.2-0.8,0.4c0.2,0.2,0.4,0.3,0.6,0.5
			c0.1,0.2,0.3,0.3,0.6,0.8c-1.5,0.2-2.7,0.4-3.9,0.4c-2.1,0-4.3-0.1-6.4-0.3c-1.2-0.1-2.3-0.8-3.5-0.8c-1.1,0-2.2,0.8-3.3,0.9
			c-3.3,0.2-6.7,0.2-10.1,0.2c-2.3,0-4.5,0.3-6.5,1.6c-0.9,0.6-1.8,0.5-2.4-0.4c-0.1-0.2-0.4-0.3-0.7-0.3c-0.9-0.1-1.9-0.1-2.8-0.4
			c-1.3-0.4-2.3-0.3-3.2,0.9c-0.8,1.1-1.2,1.1-2.1,0.1c-0.6-0.7-1.2-1.5-1.6-2.3c-0.4-0.7-0.6-0.7-1.3-0.4c-0.4,0.2-0.9,0.2-1.3,0.2
			c-0.3,0-0.6-0.1-0.9-0.2c-2.8-0.2-5.7-0.6-8.6-0.3c-2.6,0.2-5.3-0.3-8-0.3c-2.9,0-5.8,0.1-8.8,0.3c-2.3,0.2-4.5,0.1-6.7-0.7
			c-0.7-0.3-1-0.7-0.9-1.4c0.8-4.8-0.3-9.5,0-14.3c0-0.9,0.6-1.9,1-2.8c0.3-0.8,0.8-1.5,0.9-2.3c0.3-2.1,0.5-4.3,0.5-6.4
			c0-0.6-0.6-1.2-0.9-1.9c-0.4-0.7-1.1-1.4-1.2-2.2c-0.3-2.8-0.4-5.7-0.5-8.5c0-0.3,0.4-0.7,0.7-0.8c1.8-0.7,2.7-3.5,1.4-5
			c-1.1-1.3-1.5-2.8-1.2-4.5c0.7-2.9,0-5.7-0.7-8.4c-0.9-3.3-1.2-6.5-0.5-9.9c1-4.7,1.5-9.5,0.4-14.3c-0.3-1.2,0.1-2.5,0.2-3.7
			c0.1-0.6,0.5-0.8,1.2-0.8c6,0.1,12.1,0.1,18.1,0.1c0.9,0,1.8,0,2.7,0c0.3,0,0.7,0,0.9,0.2c0.9,1,2,0.7,3,0.7c1.2,0,2.4,0,3.5,0.2
			c2.3,0.3,4.2-0.7,5.9-1.9c1.4-1.1,2.9-1.2,4.4-1.2c3.6,0,7.2,0.1,10.8,0.2c0.2,0,0.4,0.1,0.7,0.1c-0.2,0.5-0.3,0.9-0.5,1.5
			c0.9,0.1,1.8,0.1,2.7,0.3c0.4,0.1,0.7,0.5,1.1,0.8c0.5,0.4,1,1,1.5,1c1,0.1,1.9-0.1,2.9-0.3c0.2-0.1,0.5-0.5,0.6-0.8
			c0.4-2.1,0.9-2.6,3-2.5c4.8,0.2,9.5,0.6,14.3,0.9C92.8,14.6,92.7,15.7,93.2,16.8z M24.1,31.6c0.8,0.9,1.6,1.8,2.4,2.6
			C32,40,37.5,45.8,43,51.5c2.1,2.2,4.2,4.4,6.2,6.5c1.9,2,3.8,4.2,5.8,6.2c4,4.1,8,8.1,11.9,12.4c3.5,3.8,6.9,7.7,10.5,11.4
			c0.7,0.7,1.8,1.3,2.8,1.5c2.6,0.4,5.2,0.5,7.8,0.8c1.4,0.1,2.2-0.4,2.9-1.7c2.3-4.3,3.3-9,4.5-13.6c0.2-0.6,0.2-1.2,0.2-1.9
			c0-0.3-0.2-0.7-0.4-0.8c-1.3-1-2.6-2-3.9-2.9c-1.1-0.8-2.3-1.6-3.5-2.3c-0.8-0.5-1.8-0.9-2.6-1.4c-0.6-0.4-1.1-1.1-1.8-1.5
			c-2.9-2-5.7-3.9-8.6-5.8c-3.7-2.5-7.3-4.9-11-7.4c-4.7-3.2-9.2-6.4-13.9-9.5c-2.3-1.5-4.7-2.7-7-4.1c-0.7-0.4-1.3-1.1-1.9-1.7
			c-0.5-0.5-0.8-1.1-1.3-1.5c-2-1.4-4.2-2.5-6.1-4c-1.5-1.1-2.8-1.4-4.4-0.7C27.6,30.2,26,30.8,24.1,31.6z M49.9,87.2
			c-6.3-6.1-12.4-12-18.6-18c-1.9,4.5-3.7,8.8-5.4,13.1c-0.3,0.7-0.3,1.5-0.2,2.2c0,0.4,0.3,0.8,0.6,1.1c1.9,1.6,3.8,3.1,5.8,4.7
			c0.4,0.3,0.9,0.7,1.4,0.7c2.8,0.1,5.6,0.4,8.2-1.2c0.4-0.2,0.9-0.3,1.3-0.4C45.2,88.7,47.4,88,49.9,87.2z M69,33.4
			c0,0.1-0.1,0.2-0.1,0.4c1.2,0.9,2.5,1.9,3.7,2.8c4.1,3.1,8.2,6.3,12.4,9.4c0.4,0.3,1.2,0.5,1.7,0.3c0.3-0.1,0.5-0.9,0.6-1.4
			c0.4-2,0.7-4.1,1-6.1c0.2-1.7,0.4-3.3,0.5-5c0-0.3-0.1-0.6-0.3-0.8c-1.1-0.8-2.3-1.5-3.4-2.2c-1.4-0.8-2.8-1.6-4.4-0.5
			c-0.2,0.2-0.6,0.2-0.9,0.2C76.2,31.5,72.6,32.4,69,33.4z"/>
		<path class="st1" d="M24.1,31.6c1.9-0.8,3.5-1.4,5-2.1c1.6-0.7,3-0.5,4.4,0.7c1.9,1.5,4.1,2.6,6.1,4c0.5,0.4,0.9,1,1.3,1.5
			c0.6,0.6,1.2,1.3,1.9,1.7c2.3,1.4,4.8,2.6,7,4.1c4.7,3.1,9.3,6.4,13.9,9.5c3.6,2.5,7.3,4.9,11,7.4c2.9,1.9,5.8,3.9,8.6,5.8
			c0.6,0.4,1.1,1.1,1.8,1.5c0.8,0.5,1.8,0.9,2.6,1.4c1.2,0.7,2.4,1.5,3.5,2.3c1.3,0.9,2.7,1.9,3.9,2.9c0.2,0.2,0.4,0.6,0.4,0.8
			c0,0.6-0.1,1.3-0.2,1.9c-1.2,4.6-2.2,9.3-4.5,13.6c-0.7,1.2-1.5,1.8-2.9,1.7c-2.6-0.3-5.2-0.4-7.8-0.8c-1-0.2-2.1-0.7-2.8-1.5
			c-3.6-3.7-7-7.6-10.5-11.4C63,72.4,59,68.3,55,64.3c-2-2-3.8-4.1-5.8-6.2c-2.1-2.2-4.1-4.4-6.2-6.5C37.5,45.8,32,40,26.5,34.2
			C25.7,33.4,25,32.5,24.1,31.6z"/>
		<path class="st1" d="M49.9,87.2c-2.5,0.8-4.7,1.4-7,2.1c-0.4,0.1-0.9,0.2-1.3,0.4c-2.6,1.6-5.4,1.3-8.2,1.2c-0.5,0-1-0.4-1.4-0.7
			c-2-1.5-3.9-3.1-5.8-4.7c-0.3-0.2-0.6-0.7-0.6-1.1c0-0.7,0-1.5,0.2-2.2c1.7-4.3,3.5-8.6,5.4-13.1C37.5,75.2,43.5,81.1,49.9,87.2z"
			/>
		<path class="st1" d="M69,33.4c3.6-0.9,7.2-1.9,10.7-2.8c0.3-0.1,0.7-0.1,0.9-0.2c1.6-1.1,3-0.3,4.4,0.5c1.2,0.7,2.3,1.5,3.4,2.2
			c0.2,0.1,0.3,0.5,0.3,0.8c-0.1,1.7-0.3,3.3-0.5,5c-0.3,2-0.6,4.1-1,6.1c-0.1,0.5-0.3,1.3-0.6,1.4c-0.5,0.1-1.3,0-1.7-0.3
			c-4.2-3.1-8.3-6.3-12.4-9.4c-1.2-0.9-2.5-1.9-3.7-2.8C69,33.6,69,33.5,69,33.4z"/>
	</g>
</g>
</svg>
