<svg id="Layer_1" data-name="Layer 1" xmlns="http://www.w3.org/2000/svg" viewBox="0 0 12.03 16"><defs><style>.cls-1{fill:#fff;}</style></defs><title>last 10 match</title><path class="cls-1" d="M8.69,5.57a3,3,0,0,1,.76,2.19A3.17,3.17,0,0,1,8.71,10c-.23.3-.6.78-.71,3.13h2A3.88,3.88,0,0,1,11,10a3.17,3.17,0,0,1-.73-2.2A3,3,0,0,1,11,5.57Zm0,0" transform="translate(-5.28)"/><path class="cls-1" d="M10.12,13.56H7c.09-3.08.58-3.73.92-4.17a2.25,2.25,0,0,0,.54-1.62,2.13,2.13,0,0,0-.54-1.59C7.6,5.76,7.11,5.15,7,2H12.7c-.08,3.18-.58,3.79-.92,4.21a2.13,2.13,0,0,0-.54,1.59,2.23,2.23,0,0,0,.5,1.57,3.89,3.89,0,0,1,.88-.43l-.07-.1a1.34,1.34,0,0,1-.34-1,1.2,1.2,0,0,1,.33-1c.45-.55,1-1.28,1.13-4.83A1,1,0,0,0,13.46,0H6.26a1,1,0,0,0-.2,1.95c.09,3.55.69,4.28,1.13,4.83a1.2,1.2,0,0,1,.33,1,1.34,1.34,0,0,1-.34,1c-.44.57-1,1.34-1.12,4.78a1,1,0,0,0,.2,1.95h5.08a3.91,3.91,0,0,1-1.23-2Zm0,0" transform="translate(-5.28)"/><path class="cls-1" d="M14.7,11.7a.43.43,0,0,0-.39.2,1.22,1.22,0,0,0-.12.63,1.24,1.24,0,0,0,.12.64.47.47,0,0,0,.77,0,1.24,1.24,0,0,0,.12-.64,1.22,1.22,0,0,0-.12-.63A.42.42,0,0,0,14.7,11.7Z" transform="translate(-5.28)"/><path class="cls-1" d="M13.89,9.16a3.42,3.42,0,1,0,3.42,3.42A3.42,3.42,0,0,0,13.89,9.16Zm-.81,4.61h-.56v-2h-.47v-.47h1Zm2.42-.31a1.16,1.16,0,0,1-1.61,0,1.4,1.4,0,0,1-.28-.94,1.39,1.39,0,0,1,.28-.93,1.17,1.17,0,0,1,1.61,0,1.39,1.39,0,0,1,.28.93A1.4,1.4,0,0,1,15.5,13.46Z" transform="translate(-5.28)"/></svg>