<?xml version="1.0" encoding="utf-8"?>
<!-- Generator: Adobe Illustrator 21.1.0, SVG Export Plug-In . SVG Version: 6.00 Build 0)  -->
<svg version="1.1" id="Layer_1" xmlns="http://www.w3.org/2000/svg" xmlns:xlink="http://www.w3.org/1999/xlink" x="0px" y="0px"
	 viewBox="0 0 75 43" style="enable-background:new 0 0 75 43;" xml:space="preserve">
<style type="text/css">
	.st0{fill:#333333;stroke:#333333;stroke-linecap:round;stroke-linejoin:round;stroke-miterlimit:10;}
	.st1{fill:#FFFFFF;}
	.st2{fill:#F2F2F2;stroke:#333333;stroke-miterlimit:10;}
	.st3{fill:#388E3C;}
	.st4{opacity:0.11;}
</style>
<g>
	<polygon class="st0" points="37.8,27.7 21.7,30 21.7,36.9 55,36.9 55,30 	"/>
	<g>
		<path class="st1" d="M26,32.8h1.9v1H26v0.7h2v1.1h-3.2V31h3.2v1.1h-2V32.8z"/>
		<path class="st1" d="M29.2,34.2c0.5,0.6,1.5,0.6,1.5,0.1c0-0.3-0.4-0.4-0.8-0.5c-0.7-0.1-1.4-0.6-1.4-1.5c0-0.9,0.8-1.4,1.7-1.4
			c0.6,0,1.1,0.2,1.6,0.7L31,32.3c-0.5-0.5-1.3-0.5-1.3,0c0,0.2,0.3,0.4,0.6,0.4c0.8,0.1,1.6,0.4,1.6,1.6c0,0.9-1,1.4-1.8,1.4
			c-0.6,0-1.1-0.3-1.6-0.8L29.2,34.2z"/>
		<path class="st1" d="M32.4,31h1.8c1.1,0,1.7,0.8,1.7,1.6c0,0.8-0.6,1.6-1.7,1.6h-0.7v1.3h-1.2V31z M34.2,33.2c0.7,0,0.7-1.1,0-1.1
			h-0.7v1.1H34.2z"/>
		<path class="st1" d="M36.3,32.5c0-1.1,1-1.6,1.9-1.6c1,0,1.9,0.5,1.9,1.6v1.6c0,1.1-1,1.6-1.9,1.6c-1,0-1.9-0.5-1.9-1.6V32.5z
			 M37.4,34.1c0,0.3,0.4,0.5,0.7,0.5c0.4,0,0.7-0.2,0.7-0.5v-1.6c0-0.4-0.4-0.5-0.8-0.5c-0.4,0-0.7,0.2-0.7,0.5V34.1z"/>
		<path class="st1" d="M42.1,34.2h-0.2v1.5h-1.2V31h1.8c1,0,1.7,0.4,1.7,1.5c0,0.9-0.3,1.3-0.9,1.5l1.3,1.6h-1.5L42.1,34.2z
			 M42.6,33.2c0.7,0,0.7-1.1,0-1.1h-0.7v1.1H42.6z"/>
		<path class="st1" d="M47,32.1v3.5h-1.2v-3.5h-1.2V31h3.6v1.1H47z"/>
		<path class="st1" d="M49.2,34.2c0.5,0.6,1.5,0.6,1.5,0.1c0-0.3-0.4-0.4-0.8-0.5c-0.7-0.1-1.4-0.6-1.4-1.5c0-0.9,0.8-1.4,1.7-1.4
			c0.6,0,1.1,0.2,1.6,0.7L51,32.3c-0.5-0.5-1.3-0.5-1.3,0c0,0.2,0.3,0.4,0.6,0.4c0.8,0.1,1.6,0.4,1.6,1.6c0,0.9-1,1.4-1.8,1.4
			c-0.6,0-1.1-0.3-1.6-0.8L49.2,34.2z"/>
	</g>
</g>
<g>
	<g>
		<path class="st2" d="M62.6,31.4c-15.9-3.8-32.6-3.8-48.5,0c-2.7,0.7-4.9-0.9-4.9-3.6c0-5.9,0-11.9,0-17.8c0-2.8,2.2-4.3,4.9-3.6
			c15.9,3.8,32.6,3.8,48.5,0c2.7-0.7,4.9,0.9,4.9,3.6c0,5.9,0,11.9,0,17.8C67.5,30.5,65.3,32.1,62.6,31.4z"/>
		<path class="st3" d="M20.8,15c0.1,0,0.1,0,0.2,0c0.3,1.1,0.6,2.1,0.9,3.2c1.7,0,3.4,0,5.1,0c-1.2-2.5-2.5-5.1-3.7-7.9
			c-1.7-0.2-3.4-0.4-5.1-0.7c-1.2,2.7-2.4,5.5-3.6,8.5c1.7,0,3.4,0,5.1,0.1C20.1,17.1,20.4,16,20.8,15z"/>
		<path class="st3" d="M36.4,16.2c0-1.9,5-2.3,6.5-0.5c1.5-0.5,3.1-0.9,4.6-1.4c-1.8-2.8-5.1-3.4-7.9-3.4c-4.5,0-8.9,1.6-8.9,5.2
			c0,0.7,0,1.4,0,2.1c1.9,0,3.8,0,5.7,0C36.4,17.6,36.4,16.9,36.4,16.2z"/>
		<path class="st3" d="M65.3,16.6c-2.9,0.1-5.9,0.2-8.9,0.3c0-0.9,0-1.8,0-2.8c3.3-0.2,6.5-0.5,9.7-0.9c0-1.7,0-3.4,0-5
			c-5,1.1-10.2,1.9-15.4,2.4c0,2.5,0,5.1,0,7.6c4.9,0,9.8-0.1,14.6-0.2C65.3,17.6,65.3,17.1,65.3,16.6z"/>
		<path class="st1" d="M19.1,20.2c1.1,0,2.2,0,3.3-0.1c-0.2-0.6-0.4-1.3-0.6-1.9c-0.7,0-1.4,0-2.1,0C19.6,18.8,19.3,19.5,19.1,20.2z
			"/>
		<path class="st3" d="M16.5,28.3c0.5-1.3,0.9-2.7,1.4-3.9c2-0.2,3.9-0.3,5.9-0.5c0.5,1.1,1,2.2,1.4,3.2c2-0.2,4-0.4,6.1-0.5
			c-1.4-2.7-2.9-5.5-4.3-8.5c-1.7,0-3.4,0-5.1,0c0.2,0.7,0.4,1.3,0.6,1.9c-1.1,0-2.2,0-3.3,0.1c0.2-0.7,0.4-1.4,0.6-2
			c-1.7,0-3.4,0-5.1-0.1c-1.4,3.5-2.7,7.3-4.1,11.4C12.6,29,14.5,28.7,16.5,28.3z"/>
		<path class="st3" d="M39.5,26.7c2.8,0,6.2-0.7,8.1-3.3c-1.6-0.6-3.3-1.2-4.9-1.7c-1.2,2.1-6.3,1.6-6.3-0.3c0-1.1,0-2.1,0-3.2
			c-1.9,0-3.8,0-5.7,0c0,1.1,0,2.2,0,3.3C30.7,25.2,35.1,26.7,39.5,26.7z"/>
		<path class="st3" d="M66,29.5c0-1.7,0-3.4,0-5.1c-3.2-0.4-6.4-0.7-9.7-0.9c0-0.9,0-1.8,0-2.7c3,0.1,6,0.2,8.9,0.3c0-1,0-2.1,0-3.1
			c-4.8,0.1-9.7,0.1-14.6,0.2c0,3,0,5.9,0,8.9C55.8,27.6,61,28.3,66,29.5z"/>
		<path class="st4" d="M16.5,28.3c0.5-1.3,0.9-2.7,1.4-3.9c2-0.2,3.9-0.3,5.9-0.5c0.5,1.1,1,2.2,1.4,3.2c2-0.2,4-0.4,6.1-0.5
			c-1.4-2.7-2.9-5.5-4.3-8.5c-1.7,0-3.4,0-5.1,0c0.2,0.7,0.4,1.3,0.6,1.9c-1.1,0-2.2,0-3.3,0.1c0.2-0.7,0.4-1.4,0.6-2
			c-1.7,0-3.4,0-5.1-0.1c-1.4,3.5-2.7,7.3-4.1,11.4C12.6,29,14.5,28.7,16.5,28.3z"/>
		<path class="st4" d="M39.5,26.7c2.8,0,6.2-0.7,8.1-3.3c-1.6-0.6-3.3-1.2-4.9-1.7c-1.2,2.1-6.3,1.6-6.3-0.3c0-1.1,0-2.1,0-3.2
			c-1.9,0-3.8,0-5.7,0c0,1.1,0,2.2,0,3.3C30.7,25.2,35.1,26.7,39.5,26.7z"/>
		<path class="st4" d="M66,29.5c0-1.7,0-3.4,0-5.1c-3.2-0.4-6.4-0.7-9.7-0.9c0-0.9,0-1.8,0-2.7c3,0.1,6,0.2,8.9,0.3c0-1,0-2.1,0-3.1
			c-4.8,0.1-9.7,0.1-14.6,0.2c0,3,0,5.9,0,8.9C55.8,27.6,61,28.3,66,29.5z"/>
	</g>
</g>
</svg>
